testWalking_coordinates.mot
nRows=6
nColumns=42

name testWalking_coordinates.mot
datacolumns 42
datarows 6
range 0.3750000000 0.4166666567
endheader
time	pelvis_tx	pelvis_ty	pelvis_tz	pelvis_list	pelvis_rotation	pelvis_tilt	hip_flexion_r	hip_adduction_r	hip_rotation_r	knee_angle_r	ankle_angle_r	subtalar_angle_r	mtp_angle_r	hip_flexion_l	hip_adduction_l	hip_rotation_l	knee_angle_l	ankle_angle_l	subtalar_angle_l	mtp_angle_l	lumbar_extension	lumbar_bending	lumbar_rotation	ground_force_vx	ground_force_vy	ground_force_vz	ground_force_px	ground_force_py	ground_force_pz	ground_force_vx	ground_force_vy	ground_force_vz	ground_force_px	ground_force_py	ground_force_pz	ground_torque_x	ground_torque_y	ground_torque_z	ground_torque_x	ground_torque_y	ground_torque_z
        0.3750000000	        0.0000000000	        0.0000000000	        0.0000000000	        0.0000000000	        0.0000000000	        0.0000000000	        0.0000000000	        0.0000000000	        0.0000000000	        0.0000000000	        0.0000000000	        0.0000000000	        0.0000000000	        0.0000000000	        0.0000000000	        0.0000000000	        0.0000000000	        0.0000000000	        0.0000000000	        0.0000000000	        0.0000000000	        0.0000000000	        0.0000000000	        0.0000000000	       -0.0000000000	       -0.0000000000	        0.0762562081	        0.0000000000	       -0.1868414730	      104.7447357178	      832.7239990234	       30.8960456848	        0.4002568722	        0.0000000000	       -0.0667625815	        0.0000000000	       -0.0000000000	       -0.0000000000	        0.0000000000	       -1.8792883158	       -0.0000000000	
        0.3833333254	        0.0000000000	        0.0000000000	        0.0000000000	        0.0000000000	        0.0000000000	        0.0000000000	        0.0000000000	        0.0000000000	        0.0000000000	        0.0000000000	        0.0000000000	        0.0000000000	        0.0000000000	        0.0000000000	        0.0000000000	        0.0000000000	        0.0000000000	        0.0000000000	        0.0000000000	        0.0000000000	        0.0000000000	        0.0000000000	        0.0000000000	        0.0221849997	        0.1750863940	        0.0000000000	        1.2524259090	        0.0000000000	        0.4089981019	      113.7821502686	      836.5320434570	       32.3206481934	        0.4019207358	        0.0000000000	       -0.0664287582	        0.0000000000	        0.0370846167	       -0.0000000000	        0.0000000000	       -1.3980416059	       -0.0000000000	
        0.3916666806	        0.0000000000	        0.0000000000	        0.0000000000	        0.0000000000	        0.0000000000	        0.0000000000	        0.0000000000	        0.0000000000	        0.0000000000	        0.0000000000	        0.0000000000	        0.0000000000	        0.0000000000	        0.0000000000	        0.0000000000	        0.0000000000	        0.0000000000	        0.0000000000	        0.0000000000	        0.0000000000	        0.0000000000	        0.0000000000	        0.0000000000	       30.3712654114	       54.0141525269	        5.9305229187	        0.9162094593	        0.0000000000	        0.0584081039	      123.1989135742	      830.9528198242	       32.8548736572	        0.4035051465	        0.0000000000	       -0.0667784661	        0.0000000000	        0.0057119532	       -0.0000000000	        0.0000000000	       -0.9620043635	       -0.0000000000	
        0.4000000060	        0.0000000000	        0.0000000000	        0.0000000000	        0.0000000000	        0.0000000000	        0.0000000000	        0.0000000000	        0.0000000000	        0.0000000000	        0.0000000000	        0.0000000000	        0.0000000000	        0.0000000000	        0.0000000000	        0.0000000000	        0.0000000000	        0.0000000000	        0.0000000000	        0.0000000000	        0.0000000000	        0.0000000000	        0.0000000000	        0.0000000000	       73.7429351807	      169.6587219238	       28.1811313629	        0.9243989587	        0.0000000000	        0.0440101847	      131.8569793701	      819.9714355469	       33.9010658264	        0.4054131210	        0.0000000000	       -0.0667761564	        0.0000000000	       -0.0440999903	       -0.0000000000	        0.0000000000	       -0.4530521929	       -0.0000000000	
        0.4083333313	        0.0000000000	        0.0000000000	        0.0000000000	        0.0000000000	        0.0000000000	        0.0000000000	        0.0000000000	        0.0000000000	        0.0000000000	        0.0000000000	        0.0000000000	        0.0000000000	        0.0000000000	        0.0000000000	        0.0000000000	        0.0000000000	        0.0000000000	        0.0000000000	        0.0000000000	        0.0000000000	        0.0000000000	        0.0000000000	        0.0000000000	       50.4043197632	      243.9828948975	       36.5418319702	        0.9274517894	        0.0000000000	        0.0390469208	      139.7786560059	      797.6544799805	       34.0346221924	        0.4076452255	        0.0000000000	       -0.0670070648	        0.0000000000	        0.6600606441	       -0.0000000000	        0.0000000000	       -0.0002861990	       -0.0000000000	
        0.4166666567	        0.0000000000	        0.0000000000	        0.0000000000	        0.0000000000	        0.0000000000	        0.0000000000	        0.0000000000	        0.0000000000	        0.0000000000	        0.0000000000	        0.0000000000	        0.0000000000	        0.0000000000	        0.0000000000	        0.0000000000	        0.0000000000	        0.0000000000	        0.0000000000	        0.0000000000	        0.0000000000	        0.0000000000	        0.0000000000	        0.0000000000	       -5.2800297737	      244.7707824707	       40.0644721985	        0.9316489697	        0.0000000000	        0.0351190083	      147.4325714111	      765.5960083008	       32.9216499329	        0.4101383984	        0.0000000000	       -0.0673558265	        0.0000000000	        0.1942621171	       -0.0000000000	        0.0000000000	        0.4780583084	       -0.0000000000	
